<?xml version="1.0" standalone="no"?>
<!DOCTYPE svg PUBLIC "-//W3C//DTD SVG 20010904//EN"
 "http://www.w3.org/TR/2001/REC-SVG-20010904/DTD/svg10.dtd">
<svg version="1.0" xmlns="http://www.w3.org/2000/svg"
 width="920.000000pt" height="351.000000pt" viewBox="0 0 920.000000 351.000000"
 preserveAspectRatio="xMidYMid meet">

<g transform="translate(0.000000,351.000000) scale(0.100000,-0.100000)"
fill="#000000" stroke="none">
<path d="M4157 3309 c-1031 -48 -2000 -283 -2611 -632 -174 -99 -306 -196
-426 -313 -98 -96 -108 -103 -150 -106 l-45 -3 -3 -77 c-3 -69 0 -83 27 -135
16 -32 42 -69 57 -83 16 -14 23 -17 15 -8 -15 20 -5 62 12 51 7 -3 3 4 -8 17
-11 13 -15 21 -9 17 5 -3 -5 39 -24 95 -39 112 -39 113 35 124 140 21 282
-109 299 -274 l7 -62 29 57 c36 72 69 115 138 181 61 59 118 89 232 122 99 29
112 24 103 -37 -21 -140 -105 -320 -195 -416 l-60 -64 73 -6 c131 -12 285 -65
392 -135 76 -50 70 -64 -31 -78 -44 -7 -154 -31 -245 -54 -193 -48 -309 -60
-384 -36 -27 8 -50 14 -50 13 -1 -1 6 -63 16 -137 10 -74 18 -181 18 -237 1
-57 3 -103 5 -103 2 0 37 19 78 42 241 137 691 315 1044 412 617 171 1273 259
2009 270 1191 17 2308 -199 3135 -607 102 -50 188 -93 193 -95 4 -2 7 36 7 85
1 48 9 151 19 228 10 77 17 141 17 142 -1 1 -24 -5 -51 -13 -76 -24 -190 -12
-400 40 -99 24 -208 48 -243 51 -34 4 -65 12 -69 18 -8 14 48 61 112 94 114
59 272 103 367 103 l40 0 -62 67 c-74 78 -149 223 -180 348 -22 87 -20 125 8
125 22 0 194 -55 230 -74 33 -17 127 -107 165 -157 14 -19 40 -61 55 -92 l29
-58 6 61 c15 165 158 296 300 275 75 -12 75 -10 32 -136 -26 -77 -35 -114 -27
-117 8 -2 9 -9 2 -22 -21 -39 10 -30 40 12 50 69 61 104 58 188 l-3 75 -50 3
c-48 3 -53 6 -150 101 -167 163 -360 293 -628 421 -819 391 -2048 588 -3300
529z m942 -378 c76 -39 116 -119 116 -236 0 -91 -20 -146 -74 -208 -33 -36
-33 -37 -38 -172 -7 -156 -6 -158 79 -104 38 25 48 37 48 59 0 43 40 92 100
123 48 25 64 28 128 25 l72 -3 0 38 0 39 47 -7 c60 -9 98 -28 119 -60 18 -27
17 -59 -7 -213 -9 -62 -9 -88 -1 -107 11 -23 15 -24 34 -14 13 6 46 34 75 61
48 48 52 56 77 152 14 55 28 114 31 130 6 27 8 28 47 22 82 -13 127 -77 111
-156 l-6 -34 39 31 c103 81 140 34 94 -117 -21 -68 -25 -110 -12 -110 23 0 50
33 56 70 15 94 133 157 248 131 29 -6 59 -13 67 -14 16 -2 78 179 122 353 13
52 24 97 26 99 7 12 105 -35 133 -64 50 -52 46 -89 -29 -265 -105 -243 -136
-351 -111 -390 8 -12 14 -13 47 -1 21 7 57 25 79 39 l42 26 -5 55 c-3 45 0 63
17 89 24 39 89 71 144 72 33 0 37 -3 30 -17 -14 -33 -16 -91 -5 -146 l12 -54
53 -6 c29 -3 73 -15 97 -27 58 -29 129 -88 129 -106 0 -20 -7 -18 -49 15 -67
53 -154 88 -191 76 -16 -5 -15 -13 17 -113 40 -120 52 -223 31 -262 -18 -35
-74 -60 -132 -60 -90 0 -173 65 -201 158 -11 37 14 129 51 183 24 37 32 58 28
75 l-6 24 -41 -35 c-70 -61 -131 -85 -211 -85 -126 0 -170 41 -150 139 l10 49
-39 -20 c-56 -30 -114 -33 -160 -10 l-37 20 -40 -21 c-31 -17 -43 -20 -57 -11
-27 16 -27 47 -3 146 13 49 19 92 15 96 -12 12 -64 -59 -115 -160 -57 -109
-86 -138 -140 -138 -52 0 -83 35 -83 94 l0 44 -46 -38 c-93 -77 -186 -105
-253 -77 -44 19 -62 65 -56 143 3 30 3 54 2 54 -2 0 -18 -9 -36 -20 -40 -24
-126 -27 -169 -5 -29 16 -30 15 -82 -30 -104 -91 -200 -120 -234 -69 -23 36
-43 135 -43 221 l0 72 -55 12 c-43 9 -64 10 -95 0 l-40 -12 57 -82 c146 -213
148 -309 7 -354 -47 -14 -62 -15 -101 -5 -55 15 -94 42 -125 85 -20 27 -23 44
-23 117 0 59 5 94 16 114 16 28 15 30 -21 82 -41 59 -66 131 -56 167 9 36 44
75 87 97 57 29 66 27 66 -20 0 -26 12 -64 33 -105 30 -59 34 -63 57 -54 32 12
135 12 167 -1 23 -8 26 -7 26 13 0 13 7 97 16 188 17 183 38 304 55 325 16 20
73 17 118 -5z m-751 -46 c57 -34 57 -29 57 -420 0 -281 3 -365 13 -383 12 -21
11 -26 -5 -44 -40 -46 -136 -63 -165 -30 -63 71 -75 188 -70 664 2 257 -4 240
89 233 29 -2 65 -11 81 -20z m-934 -45 c56 -21 63 -54 81 -375 l8 -130 16 60
c28 100 58 135 114 135 80 0 104 -116 46 -226 -17 -33 -40 -69 -51 -81 -39
-42 6 -133 66 -133 75 0 146 88 193 238 18 58 29 80 36 73 22 -22 -42 -202
-98 -275 -39 -52 -84 -76 -139 -76 -39 0 -53 5 -76 29 l-29 29 -11 -34 c-26
-77 -97 -122 -149 -95 -33 18 -68 99 -95 224 l-6 27 -39 -19 c-34 -18 -39 -26
-45 -64 -10 -66 -63 -147 -113 -175 -46 -25 -102 -30 -145 -14 -50 20 -97 87
-107 154 l-6 37 -41 -26 c-37 -24 -42 -32 -47 -74 -15 -127 -120 -224 -222
-205 -20 4 -53 22 -75 43 l-40 35 -11 -28 c-5 -16 -24 -56 -40 -88 -64 -126
-132 -186 -209 -186 -41 0 -53 5 -92 39 -109 96 -198 372 -185 578 6 109 19
150 60 205 42 55 100 88 156 88 37 0 49 -6 81 -38 42 -41 64 -102 74 -205 6
-57 6 -58 -16 -51 -13 3 -23 7 -23 8 -1 0 -7 23 -14 51 -20 82 -58 107 -97 64
-30 -33 -25 -212 9 -340 63 -239 131 -294 214 -171 50 74 65 118 67 206 1 60
7 91 23 121 74 141 247 154 313 24 l20 -39 49 24 c37 19 52 34 64 65 60 148
226 190 311 78 15 -19 26 -39 26 -45 0 -19 20 -24 55 -12 19 6 35 14 35 17 0
28 -42 495 -46 517 -4 19 -1 31 7 37 19 12 112 11 143 -1z"/>
<path d="M5150 2770 c0 -3 -7 -56 -15 -119 -9 -63 -13 -116 -11 -118 3 -3 15
15 27 39 25 48 31 149 11 183 -6 11 -12 18 -12 15z"/>
<path d="M5398 2334 c-46 -24 -51 -94 -8 -94 22 0 95 34 103 47 2 5 7 20 11
36 6 26 5 27 -36 27 -24 -1 -55 -7 -70 -16z"/>
<path d="M4595 2199 c-16 -86 -4 -139 37 -174 37 -31 59 -29 72 7 7 21 4 37
-18 80 -14 29 -39 68 -55 87 l-30 34 -6 -34z"/>
<path d="M6389 2179 c-40 -40 -12 -79 47 -65 26 7 94 62 94 77 0 5 -27 9 -60
9 -47 0 -64 -4 -81 -21z"/>
<path d="M6891 1859 c-35 -75 -21 -175 26 -193 24 -9 53 27 53 65 0 32 -36
148 -51 163 -5 6 -17 -8 -28 -35z"/>
<path d="M3612 2418 c-5 -7 -13 -44 -16 -83 -6 -65 -5 -69 9 -50 20 25 48 121
40 135 -8 14 -20 13 -33 -2z"/>
<path d="M3115 2276 c-18 -13 -18 -14 3 -25 49 -26 81 -4 36 26 -17 11 -23 11
-39 -1z"/>
<path d="M2650 2175 c-26 -14 -27 -13 25 -30 20 -6 46 5 39 16 -13 21 -40 27
-64 14z"/>
<path d="M3050 2128 c0 -96 49 -137 100 -83 22 23 54 118 41 122 -3 1 -36 3
-73 6 l-68 5 0 -50z"/>
<path d="M2592 2023 c11 -124 93 -141 134 -26 26 75 24 78 -62 78 l-76 0 4
-52z"/>
<path d="M1726 2265 c-64 -27 -99 -52 -90 -66 3 -5 1 -9 -3 -9 -5 0 -13 -8
-20 -18 -9 -15 -8 -19 3 -19 7 0 11 4 8 8 -2 4 0 10 6 14 5 3 10 0 10 -7 0 -9
3 -9 10 2 5 8 10 11 10 5 0 -7 3 -7 8 0 4 6 23 18 44 29 43 22 109 86 87 86
-7 -1 -41 -12 -73 -25z"/>
<path d="M7410 2281 c0 -13 81 -81 97 -81 7 0 13 -5 13 -12 0 -6 3 -8 7 -5 3
4 15 0 25 -10 10 -9 18 -12 18 -8 0 4 9 0 19 -9 29 -26 21 2 -12 46 -20 25
-47 44 -93 62 -72 29 -74 30 -74 17z m181 -108 c12 -16 12 -17 -2 -6 -9 7 -20
9 -24 5 -5 -4 -5 -1 -1 6 9 16 11 15 27 -5z"/>
<path d="M7643 2105 c0 -8 4 -12 9 -9 5 3 6 10 3 15 -9 13 -12 11 -12 -6z"/>
<path d="M1528 2092 c-10 -2 -18 -8 -18 -13 0 -5 -6 -9 -14 -9 -8 0 -16 -3
-18 -7 -2 -5 -23 -26 -47 -48 -24 -22 -41 -34 -37 -27 4 6 4 12 1 12 -3 0 -20
-30 -37 -66 -33 -71 -57 -165 -58 -228 0 -37 1 -38 22 -24 34 23 213 361 203
386 -4 12 -3 13 10 2 13 -11 14 -10 9 5 -5 12 -4 16 4 11 6 -3 13 -3 16 2 5 9
-7 11 -36 4z"/>
<path d="M7664 2089 c-4 -7 1 -18 11 -26 11 -7 16 -13 12 -13 -7 0 44 -102
137 -274 23 -44 53 -87 66 -95 l23 -16 -6 70 c-10 101 -57 242 -77 230 -5 -3
-7 0 -4 8 3 8 0 18 -7 23 -8 5 -10 3 -4 -7 4 -8 -12 4 -36 27 -66 61 -106 87
-115 73z"/>
<path d="M872 2012 c-18 -44 -34 -97 -38 -119 -5 -35 -4 -39 23 -50 l28 -11
-26 -1 c-30 -1 -54 -24 -44 -41 5 -8 11 -8 19 -1 14 11 26 5 26 -13 0 -6 -5
-4 -10 4 -6 9 -10 10 -10 3 0 -17 17 -25 25 -13 5 8 13 6 26 -6 10 -9 16 -20
14 -25 -3 -4 -1 -10 5 -14 5 -3 10 -11 10 -18 0 -6 -6 -2 -14 8 -8 11 -12 24
-9 29 4 5 0 6 -7 1 -9 -6 -11 -4 -5 5 5 9 4 11 -4 6 -8 -5 -2 -19 18 -45 17
-21 28 -40 26 -43 -3 -2 11 -11 30 -18 19 -8 35 -20 35 -27 0 -10 19 -11 88
-7 52 4 103 2 126 -4 22 -7 42 -10 44 -7 8 8 -43 71 -105 130 -86 81 -177 205
-212 289 l-29 69 -30 -81z m-39 -207 c-3 -9 -8 -14 -10 -11 -3 3 -2 9 2 15 9
16 15 13 8 -4z"/>
<path d="M8277 2018 c-37 -82 -110 -181 -197 -267 -74 -75 -125 -139 -116
-148 2 -3 21 1 42 7 25 9 66 10 128 6 50 -4 87 -4 83 0 -9 10 44 45 56 37 6
-3 7 -1 3 5 -4 7 -2 12 3 12 6 0 11 9 11 20 0 11 5 20 11 20 6 0 9 9 6 19 -3
12 4 28 19 42 13 12 24 19 24 15 0 -5 8 -2 18 5 15 13 16 12 3 -3 -7 -10 -18
-15 -24 -11 -6 4 -7 1 -2 -7 6 -9 4 -11 -5 -5 -9 6 -11 4 -5 -4 5 -9 15 -6 34
13 15 15 32 23 37 19 5 -5 0 2 -10 15 -11 12 -31 22 -45 23 -26 0 -26 0 -3 11
12 6 22 18 22 27 0 26 -26 113 -47 161 l-20 45 -26 -57z"/>
<path d="M1020 1981 c0 -6 4 -13 10 -16 6 -3 7 1 4 9 -7 18 -14 21 -14 7z"/>
<path d="M635 1912 c-16 -11 -37 -27 -45 -37 -8 -11 6 -4 33 15 41 29 53 40
45 40 -2 0 -16 -8 -33 -18z"/>
<path d="M8545 1923 c6 -5 28 -22 50 -38 33 -24 36 -25 20 -6 -11 13 -33 30
-50 38 -16 8 -25 11 -20 6z"/>
<path d="M1060 1893 c0 -4 38 -57 84 -117 46 -61 91 -123 100 -137 9 -15 26
-29 36 -32 13 -3 18 -1 13 6 -8 14 -7 124 2 184 6 41 5 43 -17 40 -13 -2 -28
-14 -34 -25 -6 -12 -14 -19 -19 -14 -4 4 -5 -1 -2 -11 6 -15 4 -16 -13 -7 -11
6 -20 8 -20 5 0 -5 -53 40 -107 92 -13 12 -23 19 -23 16z m214 -71 c3 -5 -1
-9 -9 -9 -8 0 -12 4 -9 9 3 4 7 8 9 8 2 0 6 -4 9 -8z"/>
<path d="M8094 1845 c-32 -30 -64 -55 -71 -55 -6 0 -14 -6 -16 -12 -4 -10 -6
-10 -6 0 -1 7 -5 10 -11 7 -5 -3 -10 1 -10 10 0 9 -4 14 -9 11 -5 -3 -11 3
-14 14 -5 21 -15 24 -33 12 -8 -5 -9 -39 -5 -110 3 -57 2 -107 -3 -112 -5 -5
0 -7 13 -3 12 3 26 14 32 25 6 10 53 75 105 143 52 69 93 125 91 125 -2 0 -30
-25 -63 -55z"/>
<path d="M8316 1752 c-2 -4 -1 -14 4 -22 7 -11 9 -9 7 8 -1 24 -3 26 -11 14z"/>
<path d="M1515 1724 c-100 -21 -170 -49 -194 -78 -11 -13 -8 -13 21 -4 97 32
117 41 112 49 -3 5 -1 9 5 9 5 0 11 -3 14 -7 2 -5 2 -2 1 5 -3 10 38 18 69 13
5 -1 6 3 2 9 -3 5 -7 9 -8 9 -1 -1 -11 -3 -22 -5z"/>
<path d="M1578 1723 c12 -2 30 -2 40 0 9 3 -1 5 -23 4 -22 0 -30 -2 -17 -4z"/>
<path d="M7580 1726 c0 -2 18 -6 39 -8 22 -2 37 0 35 4 -5 8 -74 11 -74 4z"/>
<path d="M1760 1696 c58 -12 129 -30 158 -40 29 -10 55 -16 58 -13 12 12 -242
78 -296 76 -14 0 22 -11 80 -23z"/>
<path d="M7455 1711 c-16 -5 -55 -14 -85 -21 -60 -14 -162 -51 -157 -56 2 -2
30 6 63 17 32 12 109 32 169 44 61 13 94 24 75 23 -19 0 -48 -3 -65 -7z"/>
<path d="M7698 1713 c18 -2 30 -8 27 -13 -3 -5 0 -12 6 -16 8 -4 9 -3 5 4 -4
7 -1 12 9 12 9 0 14 -4 11 -9 -5 -8 28 -22 114 -50 l35 -12 -21 21 c-27 27
-145 70 -187 68 l-32 -1 33 -4z"/>
<path d="M452 1628 c-16 -24 -33 -54 -37 -68 -6 -23 36 35 64 89 20 36 4 23
-27 -21z"/>
<path d="M8720 1666 c0 -3 18 -34 41 -68 23 -35 38 -52 34 -38 -13 43 -75 130
-75 106z"/>
<path d="M4160 1629 c-956 -50 -1859 -259 -2515 -583 -82 -40 -170 -85 -194
-99 l-44 -25 44 -27 c835 -527 2402 -796 3899 -670 962 82 1796 309 2358 642
50 30 94 59 97 63 7 11 -295 162 -460 229 -767 315 -1747 485 -2762 480 -147
-1 -338 -6 -423 -10z m-71 -394 c189 -50 306 -253 257 -445 -42 -165 -184
-275 -356 -275 -172 0 -314 110 -356 275 -69 274 181 518 455 445z m2041 0 c6
-3 10 -48 10 -104 l0 -98 -25 5 c-32 6 -65 -22 -65 -54 0 -12 16 -55 36 -94
30 -59 37 -82 37 -134 0 -94 -49 -172 -138 -219 -46 -25 -155 -30 -192 -9 -22
12 -23 19 -23 113 0 92 2 101 18 94 39 -16 53 -17 77 -1 14 9 25 22 25 30 0 7
-16 48 -36 91 -49 106 -51 185 -9 264 49 89 128 134 222 127 29 -3 57 -7 63
-11z m-2540 -105 l0 -100 -80 0 -80 0 0 -250 0 -250 -105 0 -105 0 0 250 0
250 -80 0 -80 0 0 100 0 100 265 0 265 0 0 -100z m1120 -145 c0 -231 1 -245
19 -255 31 -16 59 -12 75 12 13 19 16 61 16 255 l0 233 133 0 132 0 -2 -260
c-2 -300 -7 -322 -90 -385 -68 -52 -131 -70 -248 -70 -86 1 -108 4 -155 26
-30 14 -69 41 -87 59 -57 59 -63 94 -63 377 l0 253 135 0 135 0 0 -245z m843
231 c157 -47 215 -237 108 -357 l-37 -43 58 -139 c32 -76 58 -141 58 -143 0
-2 -49 -4 -109 -4 l-110 0 -65 133 -64 132 -1 -132 -1 -133 -105 0 -105 0 0
350 0 350 163 0 c111 0 179 -4 210 -14z"/>
<path d="M3914 1015 c-104 -62 -97 -223 11 -275 52 -25 78 -25 130 0 110 53
113 225 5 280 -52 27 -96 25 -146 -5z"/>
<path d="M5390 990 l0 -50 43 0 c50 0 67 13 67 52 0 33 -24 48 -74 48 l-36 0
0 -50z"/>
<path d="M987 1593 c-22 -4 -26 -8 -21 -27 5 -20 0 -23 -54 -33 -33 -6 -85
-23 -115 -37 -58 -28 -127 -94 -128 -124 -1 -41 -18 25 -18 76 l-1 53 -69 -3
-70 -3 17 -27 c22 -35 72 -89 103 -111 l24 -18 -25 12 c-14 7 -43 24 -65 39
-22 15 -60 39 -85 54 l-45 28 54 -49 c44 -40 53 -52 47 -71 -4 -12 -11 -20
-16 -17 -7 5 -24 -24 -18 -31 2 -1 38 0 81 3 55 4 77 10 77 19 0 9 11 14 28
14 19 0 39 12 65 39 42 44 96 62 157 51 39 -7 100 5 100 20 0 5 13 16 28 24
33 17 49 10 106 -43 25 -23 35 -29 28 -15 -10 18 -4 27 39 70 30 30 49 57 49
71 0 21 -5 23 -47 23 -39 0 -53 -5 -82 -32 -27 -25 -30 -26 -12 -5 l24 27 -32
0 c-25 0 -32 4 -27 15 4 12 -3 15 -32 14 -20 -1 -49 -4 -65 -6z"/>
<path d="M8126 1591 c-4 -5 0 -12 6 -14 7 -3 -5 -6 -26 -6 l-40 -1 30 -32 c24
-27 22 -27 -11 5 -35 32 -47 37 -88 37 -42 0 -47 -2 -47 -23 0 -14 19 -41 49
-71 l50 -49 -16 -31 c-13 -27 -11 -26 22 12 20 23 49 49 64 57 25 12 30 12 46
-3 13 -13 16 -13 10 -2 -5 8 4 3 18 -13 24 -25 31 -27 104 -26 93 1 121 -8
164 -55 22 -25 41 -36 61 -36 16 0 28 -5 28 -13 0 -7 12 -13 28 -14 15 -1 50
-5 78 -8 41 -5 51 -3 51 9 0 8 -3 13 -7 11 -4 -2 -13 7 -21 22 -13 24 -12 27
36 71 53 48 34 42 -55 -18 -30 -20 -66 -42 -80 -49 l-25 -12 25 18 c33 23 83
78 102 111 l16 27 -69 3 -69 3 -1 -53 c0 -51 -17 -117 -18 -76 -1 30 -70 96
-128 124 -30 14 -81 30 -113 36 -52 10 -58 13 -54 33 3 19 -2 23 -34 29 -52 8
-80 7 -86 -3z"/>
<path d="M1315 1549 c10 -53 16 -69 23 -69 15 0 6 67 -12 85 -18 18 -18 18
-11 -16z"/>
<path d="M7880 1561 c-14 -15 -22 -81 -9 -81 7 0 34 89 28 94 -2 1 -11 -4 -19
-13z"/>
<path d="M218 1543 c-13 -3 -18 -14 -17 -36 1 -25 3 -27 6 -9 3 17 9 22 21 17
19 -8 96 -30 128 -38 11 -2 28 1 38 8 15 11 11 16 -36 39 -48 24 -96 31 -140
19z"/>
<path d="M8865 1531 c-61 -29 -81 -46 -65 -56 9 -5 11 -4 6 3 -4 7 -3 12 3 12
5 0 12 -4 15 -9 4 -5 28 -3 59 5 28 8 63 17 76 20 14 3 28 7 32 10 4 2 9 -4
12 -13 4 -17 4 -17 12 0 11 26 -7 39 -62 44 -33 2 -60 -2 -88 -16z"/>
<path d="M660 1476 c0 -14 5 -28 10 -31 6 -3 10 -3 10 2 0 4 3 18 6 31 5 16 2
22 -10 22 -10 0 -16 -9 -16 -24z"/>
<path d="M8524 1478 c3 -13 6 -27 6 -31 0 -5 5 -5 10 -2 17 10 12 55 -6 55
-12 0 -15 -6 -10 -22z"/>
<path d="M550 1293 c-14 -3 -50 -16 -81 -30 -56 -24 -87 -59 -138 -153 l-14
-25 24 20 c13 11 40 29 59 39 19 11 68 41 109 68 41 26 77 48 80 48 3 0 12 9
19 20 11 18 10 20 -10 19 -13 -1 -34 -4 -48 -6z"/>
<path d="M694 1291 c7 -11 66 -20 66 -10 0 7 -35 19 -58 19 -7 0 -11 -4 -8 -9z"/>
<path d="M8468 1293 c-10 -2 -18 -8 -18 -12 0 -10 59 -1 66 10 5 9 -18 10 -48
2z"/>
<path d="M8600 1284 c6 -11 33 -32 58 -47 26 -15 80 -48 120 -72 39 -25 72
-42 72 -39 0 4 8 -2 18 -13 9 -10 14 -14 10 -9 -5 6 -8 17 -8 25 0 16 -38 68
-76 105 -25 24 -99 52 -162 62 -41 6 -43 6 -32 -12z"/>
<path d="M621 1264 c-6 -15 -14 -47 -17 -73 l-5 -46 16 40 c23 62 34 105 26
105 -4 0 -13 -12 -20 -26z"/>
<path d="M1028 1283 c-26 -4 -28 -8 -28 -53 0 -58 28 -153 63 -212 27 -46 107
-127 147 -148 14 -7 -3 13 -38 44 -34 32 -59 63 -55 69 3 6 1 7 -5 3 -7 -4
-12 0 -13 11 0 10 -2 28 -5 41 -3 17 -1 21 8 16 8 -5 7 0 -2 11 -9 11 -10 16
-2 11 8 -5 12 -1 12 11 0 13 3 14 8 6 5 -9 13 0 22 25 14 38 16 82 5 139 -6
31 -8 33 -48 32 -23 -1 -54 -4 -69 -6z"/>
<path d="M8066 1262 c-10 -41 -5 -142 6 -142 5 0 7 -4 4 -9 -3 -5 1 -11 9 -15
8 -3 15 -13 15 -23 0 -15 2 -16 10 -3 8 12 10 12 10 -5 0 -66 -45 -128 -151
-208 -13 -9 -1 -4 27 13 116 68 198 197 210 328 8 81 7 82 -76 89 -58 6 -58 6
-64 -25z"/>
<path d="M8569 1258 c5 -19 14 -45 21 -58 7 -14 11 -26 9 -27 -2 -1 -1 -5 4
-9 4 -4 7 1 7 12 0 32 -20 91 -34 103 -12 10 -13 6 -7 -21z"/>
<path d="M8612 1125 c0 -16 2 -22 5 -12 2 9 2 23 0 30 -3 6 -5 -1 -5 -18z"/>
<path d="M603 1065 c0 -22 2 -30 4 -17 2 12 2 30 0 40 -3 9 -5 -1 -4 -23z"/>
<path d="M8602 1060 c0 -19 2 -27 5 -17 2 9 2 25 0 35 -3 9 -5 1 -5 -18z"/>
<path d="M768 983 c-22 -124 -32 -203 -26 -203 7 0 51 277 46 290 -2 6 -11
-33 -20 -87z"/>
<path d="M8421 1065 c-1 -32 37 -267 45 -274 3 -3 3 20 -1 53 -9 76 -43 247
-44 221z"/>
<path d="M8913 1059 c9 -13 17 -28 18 -34 5 -35 69 -125 69 -98 0 36 -36 105
-67 129 -34 26 -35 26 -20 3z"/>
<path d="M263 1047 c-23 -23 -60 -114 -50 -123 9 -9 67 83 73 116 8 35 6 36
-23 7z"/>
<path d="M610 1008 c0 -21 59 -190 72 -203 5 -5 4 4 -3 20 -6 17 -24 68 -40
115 -15 47 -28 77 -29 68z"/>
<path d="M8591 1004 c0 -11 3 -14 6 -6 3 7 2 16 -1 19 -3 4 -6 -2 -5 -13z"/>
<path d="M8562 913 c-12 -37 -20 -69 -18 -71 2 -2 14 27 26 63 12 36 20 68 18
70 -2 3 -14 -26 -26 -62z"/>
<path d="M384 954 c-18 -14 -18 -15 4 -4 12 6 22 13 22 15 0 8 -5 6 -26 -11z"/>
<path d="M8800 966 c0 -3 9 -10 20 -16 11 -6 20 -8 20 -6 0 3 -9 10 -20 16
-11 6 -20 8 -20 6z"/>
<path d="M8521 803 c-10 -26 -10 -27 4 -9 8 11 15 23 15 28 0 15 -7 8 -19 -19z"/>
</g>
</svg>
